<svg width="386" height="113" viewBox="0 0 386 113" fill="none" xmlns="http://www.w3.org/2000/svg">
<path d="M29.5638 45.5926C29.5638 43.8381 30.2018 42.4027 31.4778 41.2862C32.7537 40.1299 34.4284 39.5517 36.5019 39.5517C38.5753 39.5517 40.2301 40.1299 41.4661 41.2862C42.7022 42.4027 43.3203 43.8381 43.3203 45.5926C43.3203 47.2673 42.6823 48.6628 41.4063 49.7793C40.1702 50.8958 38.5354 51.454 36.5019 51.454C34.4284 51.454 32.7537 50.8958 31.4778 49.7793C30.2018 48.6628 29.5638 47.2673 29.5638 45.5926ZM42.3035 54.8632V88.417H30.5208V54.8632H42.3035ZM71.2317 54.5642C75.0995 54.5642 78.1299 55.8601 80.323 58.4519C82.516 61.0038 83.6126 64.4927 83.6126 68.9187V88.417H71.9495V70.414C71.9495 68.4602 71.4311 66.945 70.3944 65.8684C69.3976 64.7519 68.0418 64.1937 66.3273 64.1937C64.5728 64.1937 63.1772 64.7718 62.1405 65.9282C61.1038 67.0447 60.5855 68.5997 60.5855 70.5934V88.417H48.8028V54.8632H60.5855V60.4854C61.5424 58.6911 62.938 57.2556 64.7722 56.1791C66.6064 55.1025 68.7596 54.5642 71.2317 54.5642ZM109.841 78.3688V88.417H104.996C100.889 88.417 97.6794 87.4002 95.3667 85.3666C93.0541 83.3331 91.8977 79.9638 91.8977 75.2586V64.6722H87.5914V54.8632H91.8977V46.729H103.68V54.8632H109.721V64.6722H103.68V75.4979C103.68 76.5346 103.9 77.2723 104.338 77.7109C104.817 78.1495 105.594 78.3688 106.671 78.3688H109.841ZM147.452 71.0121C147.452 71.8494 147.352 72.7665 147.152 73.7634H124.963C125.162 77.5514 126.817 79.4454 129.927 79.4454C131.083 79.4454 132.04 79.1663 132.798 78.608C133.556 78.0498 134.074 77.3121 134.353 76.3951H146.794C146.355 78.7476 145.378 80.8809 143.863 82.7948C142.348 84.6689 140.434 86.1442 138.121 87.2208C135.808 88.2974 133.276 88.8357 130.525 88.8357C127.176 88.8357 124.205 88.1578 121.613 86.8021C119.061 85.4065 117.068 83.4128 115.632 80.821C114.197 78.1894 113.479 75.1191 113.479 71.6102C113.479 68.1013 114.197 65.051 115.632 62.4592C117.068 59.8674 119.081 57.8936 121.673 56.5379C124.265 55.1423 127.216 54.4445 130.525 54.4445C133.875 54.4445 136.825 55.1224 139.377 56.4781C141.929 57.8338 143.903 59.7677 145.298 62.2797C146.734 64.7918 147.452 67.7026 147.452 71.0121ZM135.489 68.8589C135.529 67.1443 135.071 65.8484 134.114 64.9712C133.157 64.094 131.961 63.6554 130.525 63.6554C128.97 63.6554 127.694 64.094 126.697 64.9712C125.74 65.8484 125.182 67.1443 125.023 68.8589H135.489ZM163.969 61.1433C165.285 59.1496 166.94 57.5547 168.933 56.3585C170.927 55.1623 173.04 54.5642 175.273 54.5642V67.1244H171.864C169.232 67.1244 167.259 67.6428 165.943 68.6795C164.627 69.6763 163.969 71.4308 163.969 73.9428V88.417H152.186V54.8632H163.969V61.1433ZM191.612 54.4445C193.964 54.4445 195.998 54.9629 197.713 55.9996C199.467 56.9965 200.763 58.392 201.6 60.1864V54.8632H213.323V88.0581C213.323 91.1683 212.725 93.9794 211.529 96.4914C210.333 99.0434 208.478 101.077 205.966 102.592C203.454 104.107 200.284 104.865 196.457 104.865C191.233 104.865 187.066 103.649 183.956 101.216C180.886 98.7842 179.092 95.4547 178.573 91.2281H190.117C190.396 92.3446 190.994 93.2018 191.911 93.8C192.828 94.3981 194.064 94.6971 195.619 94.6971C199.607 94.6971 201.6 92.4841 201.6 88.0581V83.0938C200.763 84.8882 199.467 86.3037 197.713 87.3404C195.998 88.3372 193.964 88.8357 191.612 88.8357C188.94 88.8357 186.528 88.1578 184.375 86.8021C182.222 85.4065 180.527 83.4128 179.291 80.821C178.055 78.1894 177.437 75.1191 177.437 71.6102C177.437 68.1013 178.055 65.051 179.291 62.4592C180.527 59.8674 182.222 57.8936 184.375 56.5379C186.528 55.1423 188.94 54.4445 191.612 54.4445ZM195.5 64.732C193.665 64.732 192.17 65.35 191.014 66.5861C189.897 67.7823 189.339 69.457 189.339 71.6102C189.339 73.8033 189.897 75.5178 191.014 76.7539C192.17 77.9501 193.665 78.5482 195.5 78.5482C197.254 78.5482 198.709 77.9302 199.866 76.6941C201.022 75.458 201.6 73.7634 201.6 71.6102C201.6 69.4969 201.022 67.8222 199.866 66.5861C198.709 65.35 197.254 64.732 195.5 64.732ZM231.548 61.1433C232.864 59.1496 234.519 57.5547 236.512 56.3585C238.506 55.1623 240.619 54.5642 242.852 54.5642V67.1244H239.443C236.811 67.1244 234.838 67.6428 233.522 68.6795C232.206 69.6763 231.548 71.4308 231.548 73.9428V88.417H219.765V54.8632H231.548V61.1433ZM259.191 54.4445C261.543 54.4445 263.577 54.9629 265.292 55.9996C267.046 56.9965 268.342 58.392 269.179 60.1864V54.8632H280.902V88.417H269.179V83.0938C268.342 84.8882 267.046 86.3037 265.292 87.3404C263.577 88.3372 261.543 88.8357 259.191 88.8357C256.519 88.8357 254.107 88.1578 251.954 86.8021C249.801 85.4065 248.106 83.4128 246.87 80.821C245.634 78.1894 245.016 75.1191 245.016 71.6102C245.016 68.1013 245.634 65.051 246.87 62.4592C248.106 59.8674 249.801 57.8936 251.954 56.5379C254.107 55.1423 256.519 54.4445 259.191 54.4445ZM263.079 64.732C261.244 64.732 259.749 65.35 258.593 66.5861C257.476 67.7823 256.918 69.457 256.918 71.6102C256.918 73.8033 257.476 75.5178 258.593 76.7539C259.749 77.9501 261.244 78.5482 263.079 78.5482C264.833 78.5482 266.288 77.9302 267.445 76.6941C268.601 75.458 269.179 73.7634 269.179 71.6102C269.179 69.4969 268.601 67.8222 267.445 66.5861C266.288 65.35 264.833 64.732 263.079 64.732ZM309.773 54.5642C313.641 54.5642 316.672 55.8601 318.865 58.4519C321.058 61.0038 322.154 64.4927 322.154 68.9187V88.417H310.491V70.414C310.491 68.4602 309.973 66.945 308.936 65.8684C307.939 64.7519 306.584 64.1937 304.869 64.1937C303.115 64.1937 301.719 64.7718 300.682 65.9282C299.645 67.0447 299.127 68.5997 299.127 70.5934V88.417H287.344V54.8632H299.127V60.4854C300.084 58.6911 301.48 57.2556 303.314 56.1791C305.148 55.1025 307.301 54.5642 309.773 54.5642ZM348.383 78.3688V88.417H343.538C339.431 88.417 336.221 87.4002 333.908 85.3666C331.596 83.3331 330.439 79.9638 330.439 75.2586V64.6722H326.133V54.8632H330.439V46.729H342.222V54.8632H348.263V64.6722H342.222V75.4979C342.222 76.5346 342.441 77.2723 342.88 77.7109C343.358 78.1495 344.136 78.3688 345.213 78.3688H348.383ZM366.495 54.4445C370.921 54.4445 374.45 55.5211 377.081 57.6743C379.713 59.8275 381.368 62.6785 382.046 66.2272H371.041C370.761 65.031 370.183 64.1339 369.306 63.5358C368.469 62.9377 367.432 62.6386 366.196 62.6386C365.319 62.6386 364.641 62.838 364.162 63.2367C363.724 63.5956 363.504 64.1139 363.504 64.7918C363.504 65.6291 363.983 66.2671 364.94 66.7057C365.937 67.1045 367.552 67.563 369.785 68.0814C372.376 68.6396 374.51 69.2377 376.184 69.8757C377.899 70.5137 379.374 71.5504 380.61 72.9858C381.886 74.4213 382.524 76.3552 382.524 78.7875C382.524 80.7413 381.986 82.4758 380.909 83.991C379.833 85.5062 378.258 86.7024 376.184 87.5796C374.151 88.417 371.738 88.8357 368.947 88.8357C364.242 88.8357 360.494 87.8189 357.703 85.7853C354.912 83.7518 353.217 80.841 352.619 77.053H363.923C364.083 78.2891 364.601 79.2062 365.478 79.8043C366.395 80.4024 367.532 80.7014 368.887 80.7014C369.804 80.7014 370.502 80.502 370.981 80.1033C371.459 79.7046 371.698 79.1862 371.698 78.5482C371.698 77.5913 371.18 76.8935 370.143 76.4549C369.147 76.0163 367.532 75.5776 365.299 75.139C362.747 74.6207 360.653 74.0624 359.019 73.4643C357.384 72.8264 355.948 71.8295 354.712 70.4738C353.516 69.0782 352.918 67.1643 352.918 64.732C352.918 61.7016 354.094 59.2294 356.447 57.3155C358.799 55.4015 362.149 54.4445 366.495 54.4445Z" fill="white"/>
<path d="M72.033 13.9412C51.9323 -4.65048 20.6701 -4.64367 0.577384 13.9412C-0.178219 14.6401 -0.192968 15.8234 0.537675 16.5484L4.42234 20.4024C5.11895 21.0945 6.23987 21.1092 6.96371 20.4455C23.5189 5.27901 49.0892 5.27561 65.6478 20.4455C66.3716 21.1092 67.4925 21.0934 68.1891 20.4024L72.0738 16.5484C72.8033 15.8234 72.7886 14.6401 72.033 13.9412ZM36.3052 36.3053C32.2946 36.3053 29.0441 39.5557 29.0441 43.5663C29.0441 47.5769 32.2946 50.8274 36.3052 50.8274C40.3158 50.8274 43.5662 47.5769 43.5662 43.5663C43.5662 39.5557 40.3158 36.3053 36.3052 36.3053ZM59.2989 26.8217C46.2222 15.2573 26.3734 15.2698 13.3115 26.8217C12.5286 27.5137 12.5037 28.7152 13.2468 29.4481L17.1541 33.3044C17.8349 33.9761 18.9308 34.0214 19.6558 33.3952C29.1803 25.1618 43.4516 25.18 52.9534 33.3952C53.6784 34.0214 54.7743 33.9772 55.4551 33.3044L59.3624 29.4481C60.1067 28.7152 60.0806 27.5126 59.2989 26.8217V26.8217Z" fill="white"/>
</svg>
